<svg width="32" height="32" viewBox="0 0 32 32" fill="none" xmlns="http://www.w3.org/2000/svg">
<rect width="32" height="32" rx="8" fill="#2C2B2B"/>
<g clip-path="url(#clip0_88_1196)">
<path fill-rule="evenodd" clip-rule="evenodd" d="M12.9767 8.7105C13.7587 8.6745 14.008 8.6665 16 8.6665C17.992 8.6665 18.2413 8.67517 19.0227 8.7105C19.804 8.74584 20.3373 8.8705 20.804 9.05117C21.2927 9.23584 21.736 9.5245 22.1027 9.89784C22.476 10.2638 22.764 10.7065 22.948 11.1958C23.1293 11.6625 23.2533 12.1958 23.2893 12.9758C23.3253 13.7592 23.3333 14.0085 23.3333 15.9998C23.3333 17.9918 23.3247 18.2412 23.2893 19.0232C23.254 19.8032 23.1293 20.3365 22.948 20.8032C22.764 21.2926 22.4755 21.736 22.1027 22.1025C21.736 22.4758 21.2927 22.7638 20.804 22.9478C20.3373 23.1292 19.804 23.2532 19.024 23.2892C18.2413 23.3252 17.992 23.3332 16 23.3332C14.008 23.3332 13.7587 23.3245 12.9767 23.2892C12.1967 23.2538 11.6633 23.1292 11.1967 22.9478C10.7073 22.7638 10.2639 22.4753 9.89732 22.1025C9.52424 21.7363 9.23553 21.2931 9.05132 20.8038C8.87066 20.3372 8.74666 19.8038 8.71066 19.0238C8.67466 18.2405 8.66666 17.9912 8.66666 15.9998C8.66666 14.0078 8.67532 13.7585 8.71066 12.9772C8.74599 12.1958 8.87066 11.6625 9.05132 11.1958C9.23581 10.7066 9.52474 10.2634 9.89799 9.89717C10.264 9.52417 10.707 9.23547 11.196 9.05117C11.6627 8.8705 12.196 8.7465 12.976 8.7105H12.9767ZM18.9633 10.0305C18.19 9.99517 17.958 9.98784 16 9.98784C14.042 9.98784 13.81 9.99517 13.0367 10.0305C12.3213 10.0632 11.9333 10.1825 11.6747 10.2832C11.3327 10.4165 11.088 10.5745 10.8313 10.8312C10.588 11.0679 10.4008 11.356 10.2833 11.6745C10.1827 11.9332 10.0633 12.3212 10.0307 13.0365C9.99532 13.8098 9.98799 14.0418 9.98799 15.9998C9.98799 17.9578 9.99532 18.1898 10.0307 18.9632C10.0633 19.6785 10.1827 20.0665 10.2833 20.3252C10.4007 20.6432 10.588 20.9318 10.8313 21.1685C11.068 21.4118 11.3567 21.5992 11.6747 21.7165C11.9333 21.8172 12.3213 21.9365 13.0367 21.9692C13.81 22.0045 14.0413 22.0118 16 22.0118C17.9587 22.0118 18.19 22.0045 18.9633 21.9692C19.6787 21.9365 20.0667 21.8172 20.3253 21.7165C20.6673 21.5832 20.912 21.4252 21.1687 21.1685C21.412 20.9318 21.5993 20.6432 21.7167 20.3252C21.8173 20.0665 21.9367 19.6785 21.9693 18.9632C22.0047 18.1898 22.012 17.9578 22.012 15.9998C22.012 14.0418 22.0047 13.8098 21.9693 13.0365C21.9367 12.3212 21.8173 11.9332 21.7167 11.6745C21.5833 11.3325 21.4253 11.0878 21.1687 10.8312C20.9319 10.5879 20.6438 10.4006 20.3253 10.2832C20.0667 10.1825 19.6787 10.0632 18.9633 10.0305ZM15.0633 18.2605C15.5864 18.4783 16.1689 18.5076 16.7113 18.3437C17.2536 18.1797 17.7223 17.8324 18.0371 17.3613C18.3519 16.8902 18.4934 16.3244 18.4374 15.7606C18.3813 15.1967 18.1313 14.6698 17.73 14.2698C17.4741 14.0142 17.1648 13.8184 16.8242 13.6966C16.4836 13.5748 16.1203 13.5301 15.7603 13.5656C15.4004 13.6011 15.0528 13.716 14.7425 13.9019C14.4323 14.0879 14.1672 14.3403 13.9662 14.6411C13.7652 14.9418 13.6334 15.2834 13.5803 15.6411C13.5272 15.9989 13.5541 16.364 13.659 16.7102C13.7639 17.0563 13.9443 17.3749 14.1871 17.643C14.43 17.9111 14.7292 18.122 15.0633 18.2605ZM13.3347 13.3345C13.6847 12.9845 14.1002 12.7068 14.5575 12.5174C15.0148 12.328 15.505 12.2305 16 12.2305C16.495 12.2305 16.9851 12.328 17.4425 12.5174C17.8998 12.7068 18.3153 12.9845 18.6653 13.3345C19.0153 13.6845 19.293 14.1001 19.4824 14.5574C19.6718 15.0147 19.7693 15.5048 19.7693 15.9998C19.7693 16.4948 19.6718 16.985 19.4824 17.4423C19.293 17.8996 19.0153 18.3152 18.6653 18.6652C17.9584 19.3721 16.9997 19.7692 16 19.7692C15.0003 19.7692 14.0415 19.3721 13.3347 18.6652C12.6278 17.9583 12.2306 16.9995 12.2306 15.9998C12.2306 15.0001 12.6278 14.0414 13.3347 13.3345ZM20.6053 12.7918C20.6921 12.71 20.7615 12.6116 20.8095 12.5025C20.8576 12.3933 20.8832 12.2757 20.8849 12.1565C20.8867 12.0372 20.8645 11.9189 20.8196 11.8084C20.7748 11.6979 20.7083 11.5975 20.624 11.5132C20.5396 11.4289 20.4393 11.3623 20.3288 11.3175C20.2183 11.2727 20.0999 11.2505 19.9807 11.2522C19.8615 11.254 19.7438 11.2796 19.6347 11.3276C19.5255 11.3757 19.4271 11.4451 19.3453 11.5318C19.1862 11.7005 19.0991 11.9246 19.1025 12.1565C19.1058 12.3883 19.1995 12.6098 19.3634 12.7737C19.5274 12.9377 19.7488 13.0313 19.9807 13.0347C20.2126 13.0381 20.4366 12.951 20.6053 12.7918Z" fill="#FFFBFB" fill-opacity="0.65"/>
</g>
<defs>
<clipPath id="clip0_88_1196">
<rect width="16" height="16" fill="white" transform="translate(8 8)"/>
</clipPath>
</defs>
</svg>
