<svg width="14" height="22" viewBox="0 0 14 22" fill="none" xmlns="http://www.w3.org/2000/svg">
<path d="M1.25 0.5C1.44891 0.5 1.63968 0.579018 1.78033 0.71967C1.92098 0.860322 2 1.05109 2 1.25V5.75C1.99976 6.21549 2.14389 6.6696 2.41254 7.04974C2.68119 7.42988 3.06113 7.71734 3.5 7.8725V1.25C3.5 1.05109 3.57902 0.860322 3.71967 0.71967C3.86032 0.579018 4.05109 0.5 4.25 0.5C4.44891 0.5 4.63968 0.579018 4.78033 0.71967C4.92098 0.860322 5 1.05109 5 1.25V7.8725C5.43887 7.71734 5.81881 7.42988 6.08746 7.04974C6.35611 6.6696 6.50024 6.21549 6.5 5.75V1.25C6.5 1.05109 6.57902 0.860322 6.71967 0.71967C6.86032 0.579018 7.05109 0.5 7.25 0.5C7.44891 0.5 7.63968 0.579018 7.78033 0.71967C7.92098 0.860322 8 1.05109 8 1.25V5.75C8.00018 6.61449 7.70166 7.45249 7.15498 8.12218C6.6083 8.79186 5.84702 9.2521 5 9.425V20.75C5 20.9489 4.92098 21.1397 4.78033 21.2803C4.63968 21.421 4.44891 21.5 4.25 21.5C4.05109 21.5 3.86032 21.421 3.71967 21.2803C3.57902 21.1397 3.5 20.9489 3.5 20.75V9.425C2.65298 9.2521 1.8917 8.79186 1.34502 8.12218C0.798338 7.45249 0.499824 6.61449 0.5 5.75V1.25C0.5 1.05109 0.579018 0.860322 0.71967 0.71967C0.860322 0.579018 1.05109 0.5 1.25 0.5ZM11.7185 2.7185C11.957 2.4785 12.2255 2.294 12.5 2.1725V9.5H11V4.25C11 3.7445 11.261 3.1745 11.7185 2.7185ZM12.5 11V20.75C12.5 20.9489 12.579 21.1397 12.7197 21.2803C12.8603 21.421 13.0511 21.5 13.25 21.5C13.4489 21.5 13.6397 21.421 13.7803 21.2803C13.921 21.1397 14 20.9489 14 20.75V1.25C14 1.05109 13.921 0.860322 13.7803 0.71967C13.6397 0.579018 13.4489 0.5 13.25 0.5C12.2555 0.5 11.3255 0.989 10.6565 1.6565C9.989 2.3255 9.5 3.2555 9.5 4.25V10.25C9.5 10.4489 9.57902 10.6397 9.71967 10.7803C9.86032 10.921 10.0511 11 10.25 11H12.5Z" fill="#1B1B1B" fill-opacity="0.55"/>
</svg>
