<svg width="54" height="55" viewBox="0 0 54 55" fill="none" xmlns="http://www.w3.org/2000/svg">
<g clip-path="url(#clip0_88_1007)">
<g filter="url(#filter0_d_88_1007)">
<path d="M25.8539 1.8139L25.8528 1.8141C22.1737 2.45375 19.2609 3.98224 16.6949 6.60172L16.6943 6.60226C13.7122 9.63743 12.1025 13.3984 11.8693 17.8759L11.8693 17.8764C11.6918 21.2179 12.7546 25.184 15.2588 30.25C17.4031 34.5813 20.144 38.8736 23.8735 43.7473L23.8736 43.7473C24.855 45.03 25.7798 46.1936 26.5079 47.0687C26.8724 47.5066 27.1849 47.869 27.4293 48.1369C27.5517 48.271 27.654 48.3782 27.7353 48.4579C27.7759 48.4977 27.8091 48.5285 27.8352 48.5513C27.8482 48.5626 27.8584 48.5711 27.8661 48.5771C27.8739 48.5834 27.8774 48.5857 27.8769 48.5854L27.877 48.5854L27.8832 48.5897C27.9904 48.6642 28.1908 48.7256 28.435 48.7256C28.6792 48.7256 28.8796 48.6642 28.9868 48.5897L28.9867 48.5896L28.9922 48.5859C28.9921 48.586 29 48.5805 29.0176 48.5657C29.0344 48.5515 29.056 48.5322 29.0828 48.5069C29.1366 48.4561 29.204 48.3881 29.285 48.3024C29.4468 48.1311 29.6514 47.901 29.8906 47.6221C30.3684 47.0649 30.9727 46.326 31.6278 45.501C32.938 43.8511 34.4405 41.8706 35.5237 40.3356C40.4306 33.3507 43.6867 26.7885 44.6325 22.0439L44.6326 22.0434C44.967 20.3735 45.0715 19.1679 45.0007 17.8772L45.0007 17.8759C44.7675 13.3984 43.1578 9.63743 40.1756 6.60226L40.1745 6.60111C37.565 3.92807 34.5266 2.37165 30.7853 1.77774L30.7844 1.77761C29.5513 1.5798 27.0776 1.59822 25.8539 1.8139Z" fill="#8DE3F5" stroke="white"/>
</g>
<path d="M28 10L17 16L21 18.18V24.18L28 28L35 24.18V18.18L37 17.09V24H39V16L28 10ZM34.82 16L28 19.72L21.18 16L28 12.28L34.82 16ZM33 22.99L28 25.72L23 22.99V19.27L28 22L33 19.27V22.99Z" fill="black"/>
</g>
<defs>
<filter id="filter0_d_88_1007" x="7.3503" y="1.14014" width="42.1714" height="56.0854" filterUnits="userSpaceOnUse" color-interpolation-filters="sRGB">
<feFlood flood-opacity="0" result="BackgroundImageFix"/>
<feColorMatrix in="SourceAlpha" type="matrix" values="0 0 0 0 0 0 0 0 0 0 0 0 0 0 0 0 0 0 127 0" result="hardAlpha"/>
<feOffset dy="4"/>
<feGaussianBlur stdDeviation="2"/>
<feComposite in2="hardAlpha" operator="out"/>
<feColorMatrix type="matrix" values="0 0 0 0 0 0 0 0 0 0 0 0 0 0 0 0 0 0 0.25 0"/>
<feBlend mode="normal" in2="BackgroundImageFix" result="effect1_dropShadow_88_1007"/>
<feBlend mode="normal" in="SourceGraphic" in2="effect1_dropShadow_88_1007" result="shape"/>
</filter>
<clipPath id="clip0_88_1007">
<rect width="53.7109" height="54.8299" fill="white"/>
</clipPath>
</defs>
</svg>
