<svg width="16" height="16" viewBox="0 0 16 16" fill="none" xmlns="http://www.w3.org/2000/svg">
<g clip-path="url(#clip0_246_44)">
<path d="M10.6938 2.47943C11.52 2.47943 12.266 2.81749 12.7915 3.36024C13.4452 3.23374 14.0615 3.00324 14.6152 2.68399C14.401 3.33451 13.9452 3.88024 13.3525 4.22549C13.9325 4.15724 14.4878 4.00824 15.003 3.78549C14.6168 4.34399 14.1305 4.83574 13.569 5.22874C13.5743 5.34799 13.5773 5.46849 13.5773 5.58848C13.5773 9.27173 10.6865 13.52 5.40052 13.52C3.77802 13.52 2.26677 13.057 0.995783 12.2665C1.22316 12.2929 1.45188 12.3061 1.68078 12.306C3.02703 12.306 4.26677 11.8607 5.25052 11.1122C3.99227 11.0907 2.93027 10.284 2.56602 9.17721C2.74441 9.21063 2.92552 9.22745 3.10702 9.22746C3.36827 9.22746 3.62277 9.19371 3.86327 9.12971C2.54877 8.87446 1.55802 7.74771 1.55802 6.39643V6.36069C1.94577 6.56969 2.38852 6.69519 2.86027 6.70969C2.08877 6.20918 1.58152 5.3572 1.58152 4.38993C1.58152 3.87868 1.72353 3.39968 1.97078 2.98943C3.38778 4.67493 5.50528 5.78493 7.89403 5.90168C7.84477 5.69816 7.81928 5.48318 7.81928 5.26693C7.81928 3.72718 9.10602 2.47943 10.6938 2.47943ZM15.003 3.78601H15.0055H15.003ZM10.6937 1.47949C8.73022 1.47949 7.10352 2.91401 6.853 4.76751C5.2465 4.44476 3.7855 3.59426 2.73575 2.34651C2.64191 2.23488 2.52478 2.14512 2.39259 2.08354C2.26039 2.02196 2.11632 1.99004 1.97049 1.99002C1.9443 1.99003 1.91812 1.99103 1.892 1.99302C1.73349 2.00572 1.58028 2.05596 1.44504 2.1396C1.3098 2.22324 1.19641 2.33788 1.11425 2.47402C0.76562 3.05249 0.581417 3.71512 0.581486 4.39052C0.581486 4.84127 0.66247 5.28027 0.815986 5.69077C0.652486 5.87252 0.558236 6.11027 0.558236 6.36127V6.39702C0.558236 7.37654 0.945486 8.28552 1.58849 8.96677C1.55149 9.13827 1.55974 9.31777 1.61624 9.48977C1.838 10.1645 2.24175 10.746 2.76525 11.189C2.41374 11.2673 2.051 11.3068 1.68074 11.3068C1.48499 11.3068 1.29449 11.296 1.11424 11.274C1.07424 11.269 1.03474 11.2672 0.994986 11.2672C0.574986 11.2672 0.193736 11.532 0.0522358 11.9357C-0.103014 12.3782 0.0692514 12.8687 0.467236 13.1165C1.94425 14.0355 3.65024 14.5207 5.40024 14.5207C11.0882 14.5207 14.5097 10.068 14.5762 5.71849C15.043 5.33234 15.4553 4.88477 15.802 4.38799C15.9336 4.21513 16.0048 4.00378 16.0045 3.78649C16.0045 3.44624 15.8343 3.14549 15.575 2.96473C15.6873 2.57998 15.5592 2.16348 15.2467 1.90898C15.0642 1.76048 14.8405 1.68498 14.6155 1.68498C14.4401 1.68481 14.2678 1.73095 14.116 1.81873C13.7855 2.00924 13.432 2.15999 13.0597 2.26851C12.3862 1.76176 11.5512 1.47951 10.6937 1.47949Z" fill="#FFFBFB" fill-opacity="0.65"/>
</g>
<defs>
<clipPath id="clip0_246_44">
<rect width="16" height="16" fill="white"/>
</clipPath>
</defs>
</svg>
